<svg width="32" height="32" viewBox="0 0 32 32" fill="none" xmlns="http://www.w3.org/2000/svg">
  <!-- Background Circle -->
  <circle cx="16" cy="16" r="15" fill="#2a7d73" />
  
  <!-- Letter t -->
  <path d="M12 8H20V11H17.5V24H14.5V11H12V8Z" fill="white" />
  
  <!-- Heart Symbol -->
  <path d="M23 15C23 13.3431 21.6569 12 20 12C18.9468 12 18.0204 12.5412 17.5 13.3368C16.9796 12.5412 16.0532 12 15 12C13.3431 12 12 13.3431 12 15C12 16.2575 12.8904 18.0234 14.6712 20.1736C15.8024 21.5456 16.9336 22.5 17.5 23C18.0664 22.5 19.1976 21.5456 20.3288 20.1736C22.1096 18.0234 23 16.2575 23 15Z" fill="#ffffff" fill-opacity="0.6" />
</svg> 